<?xml version="1.0" encoding="UTF-8"?>
<svg version="1.1" xmlns="http://www.w3.org/2000/svg" width="110" height="102">
<path d="M0 0 C36.3 0 72.6 0 110 0 C110 33.66 110 67.32 110 102 C73.7 102 37.4 102 0 102 C0 68.34 0 34.68 0 0 Z " fill="#FEFEFD" transform="translate(0,0)"/>
<path d="M0 0 C2.69298304 0.72877118 5.36575357 1.49714448 8.03125 2.3203125 C7.70125 3.6403125 7.37125 4.9603125 7.03125 6.3203125 C5.05125 5.9903125 3.07125 5.6603125 1.03125 5.3203125 C0.76192479 9.97084122 0.76192479 9.97084122 2.03125 14.3203125 C2.60471056 20.62837863 1.25476725 25.14501602 -1.09375 31 C-2.08636637 33.21890366 -2.08636637 33.21890366 -1.96875 35.3203125 C-0.27785787 36.95293124 -0.27785787 36.95293124 1.84375 38.6328125 C4.94554448 41.28443504 7.41731284 43.48721174 9.03125 47.3203125 C9.07057042 48.98651527 9.07553115 50.65423418 9.03125 52.3203125 C10.82385132 52.26035928 12.61550795 52.1715884 14.40625 52.0703125 C15.40398438 52.02390625 16.40171875 51.9775 17.4296875 51.9296875 C20.13607934 51.59123209 20.13607934 51.59123209 21.390625 49.48828125 C22.38179045 46.13403234 21.85871416 43.68927371 21.03125 40.3203125 C20.350625 39.5571875 19.67 38.7940625 18.96875 38.0078125 C16.1077954 34.0393916 16.49380166 30.07805187 17.03125 25.3203125 C18.03125 24.3203125 18.03125 24.3203125 20.75390625 24.22265625 C21.85605469 24.23425781 22.95820312 24.24585937 24.09375 24.2578125 C25.75083984 24.27134766 25.75083984 24.27134766 27.44140625 24.28515625 C28.29605469 24.29675781 29.15070312 24.30835937 30.03125 24.3203125 C30.02601318 23.59851807 30.02077637 22.87672363 30.01538086 22.13305664 C29.99467642 18.88298401 29.98161082 15.63292522 29.96875 12.3828125 C29.96037109 11.24650391 29.95199219 10.11019531 29.94335938 8.93945312 C29.94013672 7.85986328 29.93691406 6.78027344 29.93359375 5.66796875 C29.92835693 4.66773682 29.92312012 3.66750488 29.91772461 2.63696289 C30.03125 0.3203125 30.03125 0.3203125 31.03125 -0.6796875 C33.68581193 -0.78064314 36.31380176 -0.81939748 38.96875 -0.8125 C39.764021 -0.81345673 40.55929199 -0.81441345 41.37866211 -0.81539917 C43.0633146 -0.81608093 44.74796971 -0.81422693 46.43261719 -0.81005859 C49.02024197 -0.80471025 51.60769316 -0.81000369 54.1953125 -0.81640625 C55.82812539 -0.81574547 57.46093816 -0.8144643 59.09375 -0.8125 C59.87290771 -0.81452423 60.65206543 -0.81654846 61.45483398 -0.81863403 C66.91629895 -0.79463855 66.91629895 -0.79463855 68.03125 0.3203125 C68.18889405 2.09900976 68.28225677 3.88349726 68.34765625 5.66796875 C68.38955078 6.74755859 68.43144531 7.82714844 68.47460938 8.93945312 C68.51392578 10.07576172 68.55324219 11.21207031 68.59375 12.3828125 C68.63693359 13.52298828 68.68011719 14.66316406 68.72460938 15.83789062 C68.83107839 18.66523445 68.93309207 21.49266988 69.03125 24.3203125 C69.69125 24.6503125 70.35125 24.9803125 71.03125 25.3203125 C71.073971 26.98643155 71.07188832 28.65414135 71.03125 30.3203125 C69.15300109 32.19856141 65.99189724 31.71133647 63.46875 31.8828125 C62.27121094 31.96660156 61.07367188 32.05039062 59.83984375 32.13671875 C58.91300781 32.19730469 57.98617187 32.25789063 57.03125 32.3203125 C57.79050781 32.74570312 58.54976563 33.17109375 59.33203125 33.609375 C61.78359924 35.16333561 63.36616321 36.50002199 65.21875 38.6953125 C65.70730469 39.25992188 66.19585937 39.82453125 66.69921875 40.40625 C69.59564296 44.5682672 70.27722878 48.11219307 70.15625 53.1328125 C70.13820313 54.10863281 70.12015625 55.08445313 70.1015625 56.08984375 C70.07835938 56.82589844 70.05515625 57.56195313 70.03125 58.3203125 C66.73125 58.3203125 63.43125 58.3203125 60.03125 58.3203125 C59.825 59.2071875 59.61875 60.0940625 59.40625 61.0078125 C57.75729369 64.98029816 55.89164487 67.45340023 52.03125 69.3203125 C47.85625942 70.16073268 43.99256939 70.25164324 40.08984375 68.3984375 C35.90519193 65.29272 35.92907976 63.70729104 35.03125 58.3203125 C24.47125 58.3203125 13.91125 58.3203125 3.03125 58.3203125 C3.03125 59.6403125 3.03125 60.9603125 3.03125 62.3203125 C1.05125 61.6603125 -0.92875 61.0003125 -2.96875 60.3203125 C-3.36707031 60.87460938 -3.76539062 61.42890625 -4.17578125 62 C-4.97048828 63.08667969 -4.97048828 63.08667969 -5.78125 64.1953125 C-6.30332031 64.91460937 -6.82539063 65.63390625 -7.36328125 66.375 C-9.37874567 68.81709557 -11.0731231 70.17386748 -14.23828125 70.69140625 C-21.95146423 70.89282577 -21.95146423 70.89282577 -25.46875 68.0703125 C-28.78634478 64.42095824 -29.85342636 62.87718165 -30.21875 57.9453125 C-29.9734391 54.38830451 -29.25935732 51.62749376 -27.96875 48.3203125 C-29.28875 47.6603125 -30.60875 47.0003125 -31.96875 46.3203125 C-31.96875 45.6603125 -31.96875 45.0003125 -31.96875 44.3203125 C-30.54296875 43.06640625 -30.54296875 43.06640625 -28.65625 41.7578125 C-28.04136719 41.32339844 -27.42648438 40.88898437 -26.79296875 40.44140625 C-23.58671337 38.47096665 -20.94937102 38.20465133 -17.28125 38.2578125 C-16.06888672 38.27134766 -16.06888672 38.27134766 -14.83203125 38.28515625 C-14.21714844 38.29675781 -13.60226563 38.30835938 -12.96875 38.3203125 C-12.89398437 37.6396875 -12.81921875 36.9590625 -12.7421875 36.2578125 C-11.49085155 27.03227684 -8.42967017 18.89642914 -4.96875 10.3203125 C-6.0825 10.1965625 -7.19625 10.0728125 -8.34375 9.9453125 C-11.96875 9.3203125 -11.96875 9.3203125 -13.96875 7.3203125 C-14.32006571 4.58004997 -14.31294875 2.94417274 -12.96875 0.5078125 C-8.87195359 -1.92466037 -4.42814376 -1.01381186 0 0 Z " fill="#C17708" transform="translate(31.96875,14.6796875)"/>
<path d="M0 0 C3.48864279 0.36089408 6.09032693 2.1410422 9 4 C8.25 8.75 8.25 8.75 6 11 C2.8695827 11.33302312 0.82101702 11.47671956 -1.9375 9.875 C-3 8 -3 8 -2.8125 4.9375 C-2 2 -2 2 0 0 Z " fill="#FAF6EE" transform="translate(12,67)"/>
<path d="M0 0 C9.9 0 19.8 0 30 0 C30 0.99 30 1.98 30 3 C20.1 3 10.2 3 0 3 C0 2.01 0 1.02 0 0 Z " fill="#F4E7D4" transform="translate(67,29)"/>
<path d="M0 0 C3.3 0 6.6 0 10 0 C9.67 1.32 9.34 2.64 9 4 C6.1875 4.625 6.1875 4.625 3 5 C2.01 4.34 1.02 3.68 0 3 C0 2.01 0 1.02 0 0 Z " fill="#FDFBF8" transform="translate(74,73)"/>
<path d="M0 0 C0.33 0 0.66 0 1 0 C1 2.31 1 4.62 1 7 C0.01 7 -0.98 7 -2 7 C-2.125 4.625 -2.125 4.625 -2 2 C-1.34 1.34 -0.68 0.68 0 0 Z " fill="#D7A862" transform="translate(20,15)"/>
</svg>
