<svg width="29" height="29" viewBox="0 0 29 29" fill="none" xmlns="http://www.w3.org/2000/svg">
<path d="M12.3586 13.62C12.8518 13.0928 13.1078 12.3874 13.0676 11.6668C13.0805 11.1682 12.9679 10.675 12.7392 10.2318C12.535 9.84229 12.2205 9.52153 11.8345 9.31021C11.0143 8.8934 10.0445 8.8934 9.22424 9.31021C8.83691 9.51884 8.52017 9.83782 8.31377 10.226C8.08504 10.6692 7.97246 11.1624 7.98542 11.661C7.94521 12.3816 8.20119 13.087 8.6944 13.6141C9.19475 14.0721 9.84836 14.3263 10.5266 14.3263C11.2047 14.3263 11.8584 14.0721 12.3587 13.6141L12.3586 13.62ZM10.0945 12.5714C9.86617 11.9858 9.86617 11.3357 10.0945 10.7505C10.1713 10.583 10.3393 10.4753 10.5238 10.4753C10.7083 10.4753 10.8758 10.583 10.9526 10.7505C11.1818 11.3357 11.1818 11.9858 10.9526 12.5714C10.8758 12.739 10.7083 12.8462 10.5238 12.8462C10.3393 12.8462 10.1713 12.739 10.0945 12.5714Z" fill="black"/>
<path d="M18.8463 13.8212C18.0261 13.4048 17.0562 13.4048 16.236 13.8212C15.8487 14.0298 15.5319 14.3488 15.326 14.7375C15.0968 15.1802 14.9838 15.6739 14.9976 16.1724C14.9565 16.893 15.2125 17.5989 15.7062 18.1256C16.2065 18.5835 16.8601 18.8373 17.5383 18.8373C18.2169 18.8373 18.8705 18.5835 19.3708 18.1256C19.864 17.5989 20.12 16.8931 20.0794 16.1724C20.0928 15.6739 19.9797 15.1802 19.751 14.7375C19.5459 14.3497 19.2314 14.0312 18.8463 13.8212ZM17.9707 17.0825C17.8934 17.2505 17.7259 17.3577 17.5414 17.3577C17.3569 17.3577 17.1889 17.2505 17.1121 17.0825C16.8833 16.4973 16.8833 15.8472 17.1121 15.262C17.1889 15.094 17.3569 14.9868 17.5414 14.9868C17.7259 14.9868 17.8934 15.094 17.9707 15.262C18.199 15.8472 18.199 16.4973 17.9707 17.0825Z" fill="black"/>
<path d="M16.6502 9.13665C16.3348 9.13621 16.0395 9.29123 15.8608 9.55123L10.629 17.2147C10.382 17.6472 10.5079 18.1971 10.919 18.4786C11.33 18.76 11.8879 18.6792 12.202 18.2923L17.4338 10.6288C17.6313 10.3371 17.6523 9.96047 17.4884 9.6482C17.3248 9.33637 17.0027 9.13979 16.6502 9.13665Z" fill="black"/>
<path d="M25.6165 12.9863C26.2956 12.1397 26.5024 11.0076 26.1664 9.97572C25.8309 8.94329 24.9982 8.14985 23.9511 7.86394C23.2769 7.68077 22.8212 7.05264 22.8565 6.35441C22.907 5.27105 22.4089 4.23508 21.5315 3.59795C20.6541 2.96044 19.5148 2.80765 18.5003 3.19096C17.8472 3.44069 17.1082 3.20079 16.7258 2.6151C16.1303 1.70687 15.1179 1.16001 14.0319 1.16001C12.9463 1.16001 11.9335 1.70682 11.3384 2.6151C10.956 3.20078 10.2171 3.44069 9.56346 3.19096C8.54891 2.80765 7.40971 2.96044 6.53229 3.59795C5.65488 4.235 5.1568 5.27101 5.2077 6.35441C5.24299 7.05268 4.78731 7.68084 4.11273 7.86394C3.06556 8.14985 2.23277 8.94327 1.89733 9.97572C1.56183 11.0077 1.76867 12.1398 2.44772 12.9863C2.88687 13.5309 2.88687 14.3086 2.44772 14.8532C1.76867 15.6998 1.56183 16.8319 1.89733 17.8638C2.23284 18.8962 3.06559 19.6901 4.11273 19.9756C4.78731 20.1588 5.24299 20.7873 5.2077 21.4851C5.15677 22.5685 5.65489 23.6044 6.53229 24.2416C7.4097 24.8791 8.54892 25.0319 9.56346 24.6486C10.217 24.3993 10.956 24.6392 11.3384 25.2249C11.9335 26.1327 12.9463 26.68 14.0319 26.68C15.1179 26.68 16.1303 26.1327 16.7258 25.2249C17.1082 24.6392 17.8471 24.3993 18.5003 24.6486C19.5149 25.0319 20.6541 24.8791 21.5315 24.2416C22.4089 23.6045 22.907 22.5685 22.8565 21.4851C22.8212 20.7873 23.2769 20.1587 23.9511 19.9756C24.9982 19.6901 25.831 18.8963 26.1664 17.8638C26.5024 16.8318 26.2956 15.6998 25.6165 14.8532C25.1769 14.3086 25.1769 13.5309 25.6165 12.9863ZM24.2682 15.9308C24.5827 16.323 24.6788 16.848 24.5233 17.3264C24.3679 17.8049 23.9814 18.1725 23.4958 18.3048C22.7886 18.4946 22.1677 18.9217 21.7365 19.5141C21.3059 20.1065 21.091 20.8284 21.1276 21.5602C21.1522 22.0624 20.9225 22.5431 20.516 22.8388C20.1095 23.135 19.5814 23.2065 19.111 23.0296C18.4253 22.7701 17.6711 22.754 16.9751 22.9836C16.2786 23.2132 15.6822 23.6747 15.2851 24.2913C15.0095 24.7116 14.5404 24.9645 14.0378 24.9645C13.5352 24.9645 13.0661 24.7116 12.7905 24.2913C12.2008 23.3844 11.1929 22.8357 10.1109 22.8335C9.71734 22.834 9.32688 22.9064 8.9588 23.0466C8.48837 23.224 7.96032 23.1525 7.5538 22.8563C7.14771 22.5606 6.91764 22.0794 6.9422 21.5772C6.97884 20.8459 6.76395 20.1235 6.33329 19.5311C5.90219 18.9387 5.28121 18.5121 4.57399 18.3218C4.08838 18.19 3.70239 17.8219 3.54648 17.3434C3.39101 16.865 3.48706 16.3405 3.80202 15.9483C4.26395 15.3778 4.51636 14.6656 4.51636 13.9312C4.51636 13.1972 4.26395 12.485 3.80202 11.9146C3.48706 11.5223 3.39101 10.9978 3.54648 10.5194C3.70239 10.0409 4.08838 9.67282 4.57399 9.54103C5.28119 9.35071 5.90213 8.92408 6.33329 8.33172C6.76395 7.73933 6.97884 7.01696 6.9422 6.28512C6.91763 5.78298 7.14771 5.30228 7.5538 5.0065C7.96034 4.71032 8.48839 4.63884 8.9588 4.81619C9.645 5.07485 10.3996 5.09004 11.0961 4.85908C11.7926 4.62856 12.3885 4.16573 12.7848 3.54832C13.0605 3.12838 13.5295 2.87507 14.0321 2.87507C14.5347 2.87507 15.0038 3.12838 15.2794 3.54832C15.6792 4.16304 16.2779 4.62185 16.9752 4.84833C17.6726 5.07483 18.4266 5.05517 19.1111 4.79293C19.5815 4.61557 20.1096 4.68705 20.5161 4.98325C20.9227 5.27943 21.1523 5.76014 21.1277 6.26232C21.0911 6.99364 21.306 7.71604 21.7366 8.30845C22.1677 8.90084 22.7887 9.32748 23.4959 9.51777C23.9815 9.65 24.368 10.0177 24.5234 10.4961C24.6789 10.9746 24.5829 11.4991 24.2683 11.8918C23.8046 12.4627 23.5513 13.1758 23.5513 13.911C23.5513 14.6468 23.8046 15.3598 24.2683 15.9307L24.2682 15.9308Z" fill="black"/>
</svg>
