<svg width="86" height="13" viewBox="0 0 86 13" fill="none" xmlns="http://www.w3.org/2000/svg">
<rect y="7.98736" width="3.6864" height="4.9152" rx="1.28735" fill="white"/>
<rect x="5.52889" y="5.52951" width="3.6864" height="7.3728" rx="1.28735" fill="white"/>
<rect x="11.059" y="2.45733" width="3.6864" height="10.4448" rx="1.28735" fill="white"/>
<rect x="16.5878" width="3.6864" height="12.9024" rx="1.28735" fill="white"/>
<path d="M31.7695 5.4881C31.9278 5.6639 32.1766 5.65625 32.3424 5.47281C34.2042 3.47783 36.6539 2.42301 39.39 2.42301C42.1488 2.42301 44.606 3.47783 46.4604 5.4881C46.6187 5.64862 46.8598 5.64097 47.0181 5.47281L48.0734 4.39506C48.2241 4.2422 48.2241 4.04346 48.1035 3.89823C46.287 1.62809 42.9026 0 39.39 0C35.885 0 32.4931 1.62044 30.6841 3.89823C30.5635 4.04346 30.5635 4.2422 30.7067 4.39506L31.7695 5.4881ZM34.9202 8.66783C35.1011 8.84364 35.3423 8.82835 35.5157 8.63726C36.4353 7.62066 37.9051 6.90216 39.3976 6.90981C40.8976 6.90216 42.3674 7.63595 43.3096 8.66019C43.4679 8.84364 43.6941 8.83599 43.8674 8.66019L45.0507 7.48307C45.1939 7.3455 45.209 7.1544 45.0809 7.00153C43.9051 5.55689 41.7569 4.51736 39.3976 4.51736C37.0308 4.51736 34.8825 5.55689 33.7067 7.00153C33.5785 7.1544 33.5936 7.33785 33.7368 7.48307L34.9202 8.66783ZM39.3976 12.9024C39.5785 12.9024 39.7368 12.8183 40.0458 12.5202L41.8925 10.7163C42.0282 10.5864 42.0584 10.3724 41.9378 10.2195C41.4101 9.5392 40.4528 8.98886 39.3976 8.98886C38.3122 8.98886 37.3398 9.56214 36.8197 10.2806C36.7293 10.4182 36.7745 10.5864 36.9026 10.7163L38.7493 12.5202C39.0509 12.8107 39.2167 12.9024 39.3976 12.9024Z" fill="white"/>
<path opacity="0.36" d="M79.1683 0C80.5686 1.40439e-06 81.0768 0.1461 81.5887 0.419888C82.1005 0.693672 82.5023 1.09533 82.776 1.60712C83.0497 2.11904 83.1959 2.62734 83.1959 4.0276V8.8754C83.1958 10.2753 83.0496 10.7831 82.776 11.2949C82.5022 11.8068 82.1006 12.2093 81.5887 12.4831C81.0768 12.7569 80.5686 12.902 79.1683 12.902H62.5401C61.1399 12.902 60.6315 12.7569 60.1196 12.4831C59.6077 12.2093 59.2062 11.8068 58.9324 11.2949C58.6587 10.783 58.5125 10.2754 58.5125 8.8754V4.0276C58.5125 2.62726 58.6586 2.11907 58.9324 1.60712C59.2062 1.09527 59.6078 0.693658 60.1196 0.419888C60.6316 0.146099 61.1398 0 62.5401 0H79.1683ZM62.5391 1.12166C61.4319 1.12166 61.0451 1.19616 60.6481 1.40844C60.3318 1.5776 60.0901 1.81939 59.9209 2.13566C59.7086 2.53266 59.6342 2.91954 59.6342 4.02662V8.8754C59.6342 9.98247 59.7086 10.3694 59.9209 10.7664C60.0901 11.0826 60.3318 11.3244 60.6481 11.4936C61.0451 11.7059 61.4319 11.7804 62.5391 11.7804H79.1673C80.2742 11.7804 80.6613 11.7058 81.0582 11.4936C81.3745 11.3244 81.6162 11.0826 81.7855 10.7664C81.9978 10.3694 82.0732 9.98247 82.0732 8.8754V4.02662C82.0732 2.91954 81.9978 2.53266 81.7855 2.13566C81.6162 1.81945 81.3745 1.57758 81.0582 1.40844C80.6613 1.19626 80.2742 1.12166 79.1673 1.12166H62.5391ZM84.3175 4.14016C84.3361 4.14968 86 5.00484 86 6.38445C85.9997 7.76251 84.3392 8.61666 84.3175 8.62777V4.14016Z" fill="white"/>
<rect x="60.7565" y="2.15101" width="20.1951" height="8.60162" rx="2.05975" fill="white"/>
</svg>
