<svg width="15" height="13" viewBox="0 0 15 13" fill="none" xmlns="http://www.w3.org/2000/svg">
<path fill-rule="evenodd" clip-rule="evenodd" d="M3.03792 1.31295C1.88568 1.83941 1.04181 3.09236 1.04181 4.58632C1.04181 6.11223 1.6669 7.28878 2.56147 8.29725C3.29977 9.12793 4.19295 9.81691 5.0639 10.4878C5.27088 10.6476 5.47646 10.8066 5.67857 10.9657C6.0439 11.2539 6.36964 11.506 6.68427 11.6901C6.9982 11.8734 7.25101 11.9575 7.46632 11.9575C7.68163 11.9575 7.93444 11.8741 8.24837 11.6901C8.563 11.506 8.88874 11.2539 9.25407 10.9657C9.45549 10.8059 9.66177 10.6476 9.86874 10.4885C10.7397 9.81622 11.6329 9.12793 12.3712 8.29725C13.2664 7.28878 13.8908 6.11223 13.8908 4.58632C13.8908 3.09306 13.047 1.83941 11.8947 1.31295C10.7751 0.801068 9.27074 0.936504 7.84137 2.42213C7.79278 2.47254 7.73452 2.51264 7.67008 2.54003C7.60564 2.56742 7.53634 2.58154 7.46632 2.58154C7.3963 2.58154 7.327 2.56742 7.26256 2.54003C7.19812 2.51264 7.13986 2.47254 7.09127 2.42213C5.6619 0.936504 4.15753 0.801068 3.03792 1.31295ZM7.46632 1.33795C5.86054 -0.0997517 4.06237 -0.301169 2.60453 0.364897C1.06682 1.06986 0 2.70342 0 4.58701C0 6.43797 0.770941 7.85067 1.78289 8.98971C2.59272 9.90165 3.58383 10.6649 4.45965 11.3387C4.65829 11.4915 4.85068 11.6401 5.03334 11.7845C5.38964 12.0651 5.77164 12.3638 6.1585 12.5902C6.54536 12.8159 6.98709 13 7.46632 13C7.94555 13 8.38728 12.8159 8.77414 12.5902C9.1617 12.3638 9.543 12.0651 9.8993 11.7845C10.0895 11.6346 10.2808 11.486 10.473 11.3387C11.3481 10.6649 12.3399 9.90095 13.1498 8.98971C14.1617 7.85067 14.9326 6.43797 14.9326 4.58701C14.9326 2.70342 13.8665 1.06986 12.3281 0.366286C10.8703 -0.300474 9.0721 -0.0990572 7.46632 1.33795Z" fill="white"/>
</svg>
