<svg width="8" height="8" viewBox="0 0 8 8" fill="none" xmlns="http://www.w3.org/2000/svg">
<path d="M5.73331 2.79399C5.69303 2.75363 5.64519 2.72161 5.59252 2.69977C5.53985 2.67792 5.48339 2.66667 5.42637 2.66667C5.36935 2.66667 5.31289 2.67792 5.26023 2.69977C5.20756 2.72161 5.15972 2.75363 5.11944 2.79399L3.4302 4.48323L1.74096 2.79399C1.70065 2.75369 1.6528 2.72171 1.60014 2.6999C1.54747 2.67808 1.49103 2.66686 1.43402 2.66686C1.37702 2.66686 1.32058 2.67808 1.26791 2.6999C1.21525 2.72171 1.1674 2.75369 1.12709 2.79399C1.08678 2.8343 1.05481 2.88215 1.03299 2.93482C1.01118 2.98748 0.999951 3.04393 0.999951 3.10093C0.999951 3.15793 1.01118 3.21438 1.03299 3.26704C1.05481 3.31971 1.08678 3.36756 1.12709 3.40787L3.12544 5.40622C3.16572 5.44658 3.21356 5.4786 3.26623 5.50045C3.3189 5.52229 3.37536 5.53354 3.43238 5.53354C3.4894 5.53354 3.54586 5.52229 3.59852 5.50045C3.65119 5.4786 3.69903 5.44658 3.73931 5.40622L5.73766 3.40787C5.90311 3.24243 5.90311 2.96379 5.73331 2.79399Z" fill="white"/>
</svg>
