<svg width="21" height="21" viewBox="0 0 21 21" fill="none" xmlns="http://www.w3.org/2000/svg">
<path d="M13.125 0.875H7.875V2.625H13.125V0.875ZM16.6513 6.46625L17.8938 5.22375C17.5175 4.7775 17.1063 4.3575 16.66 3.99L15.4175 5.2325C14.0239 4.11103 12.2888 3.49973 10.5 3.5C6.15125 3.5 2.625 7.02625 2.625 11.375C2.625 15.7238 6.1425 19.25 10.5 19.25C11.9825 19.2508 13.4351 18.8328 14.6905 18.0442C15.9459 17.2556 16.9529 16.1284 17.5958 14.7925C18.2386 13.4566 18.491 11.9663 18.3239 10.4932C18.1568 9.02015 17.577 7.62423 16.6513 6.46625ZM10.5 17.5C7.11375 17.5 4.375 14.7612 4.375 11.375C4.375 7.98875 7.11375 5.25 10.5 5.25C13.8862 5.25 16.625 7.98875 16.625 11.375C16.625 14.7612 13.8862 17.5 10.5 17.5Z" fill="black"/>
<path d="M10.4552 16.4294C11.8357 16.4448 13.1652 15.9653 14.1512 15.0965C15.1371 14.2277 15.6988 13.0408 15.7127 11.7967C15.7265 10.5527 15.1914 9.35354 14.225 8.46302C13.2586 7.57249 11.9401 7.06357 10.5596 7.0482L10.5074 11.7388L10.4552 16.4294Z" fill="#00A912"/>
</svg>
