<svg width="15" height="15" viewBox="0 0 15 15" fill="none" xmlns="http://www.w3.org/2000/svg">
<g clip-path="url(#clip0_496_722)">
<path d="M9.375 2.9356C9.375 1.96283 8.53553 1.17424 7.5 1.17424C6.46447 1.17424 5.625 1.96283 5.625 2.9356V6.45833C5.625 7.43111 6.46447 8.2197 7.5 8.2197C8.53553 8.2197 9.375 7.43111 9.375 6.45833V2.9356Z" fill="#E50300" stroke="#E50300" stroke-width="0.9375"/>
<path d="M3.125 5.87122V6.45834C3.125 7.54834 3.58594 8.59369 4.40641 9.36444C5.22688 10.1352 6.33968 10.5682 7.5 10.5682M7.5 10.5682C8.66032 10.5682 9.77312 10.1352 10.5936 9.36444C11.4141 8.59369 11.875 7.54834 11.875 6.45834V5.87122M7.5 10.5682V12.9167M7.5 12.9167H5.625M7.5 12.9167H9.375" stroke="#E50300" stroke-width="0.9375" stroke-linecap="round" stroke-linejoin="round"/>
</g>
<defs>
<clipPath id="clip0_496_722">
<rect width="15" height="14.0909" fill="white"/>
</clipPath>
</defs>
</svg>
