<svg width="24" height="23" viewBox="0 0 24 23" fill="none" xmlns="http://www.w3.org/2000/svg">
<path d="M21.75 19.4356L16.086 14.1149C17.4471 12.5799 18.1258 10.611 17.981 8.61793C17.8361 6.62482 16.8789 4.76089 15.3084 3.41389C13.7379 2.06688 11.675 1.34052 9.54893 1.3859C7.42284 1.43128 5.39723 2.24491 3.89347 3.65753C2.38971 5.07016 1.52359 6.97301 1.47528 8.97024C1.42697 10.9675 2.2002 12.9053 3.6341 14.3806C5.06801 15.856 7.05219 16.7552 9.17389 16.8912C11.2956 17.0273 13.3914 16.3897 15.0255 15.1111L20.6895 20.4318L21.75 19.4356ZM2.99996 9.15909C2.99996 7.90498 3.39585 6.67903 4.13754 5.63627C4.87924 4.59351 5.93345 3.78078 7.16685 3.30085C8.40025 2.82093 9.75745 2.69535 11.0668 2.94002C12.3762 3.18469 13.5789 3.7886 14.5229 4.67539C15.4669 5.56218 16.1098 6.69202 16.3703 7.92204C16.6307 9.15206 16.497 10.427 15.9862 11.5857C15.4753 12.7443 14.6101 13.7346 13.5001 14.4314C12.39 15.1281 11.085 15.5 9.74996 15.5C7.96036 15.4981 6.24463 14.8295 4.97919 13.6407C3.71375 12.452 3.00195 10.8402 2.99996 9.15909Z" fill="#E50300"/>
</svg>
