<svg width="18" height="18" viewBox="0 0 18 18" fill="none" xmlns="http://www.w3.org/2000/svg">
<path d="M7.03789 8.31602L7.24939 7.09202C7.27639 6.94802 7.22689 6.79502 7.11889 6.69152L6.22789 5.82302C5.96239 5.56202 6.10639 5.10752 6.47539 5.05352L7.70389 4.87352C7.85239 4.85102 7.97839 4.76102 8.04139 4.62602L8.59039 3.51452C8.75689 3.18152 9.23389 3.18152 9.39589 3.51452L9.94489 4.63052C10.0124 4.76552 10.1384 4.85552 10.2824 4.87802L11.5109 5.05802C11.8799 5.11202 12.0284 5.56652 11.7584 5.82752L10.8674 6.69602C10.7594 6.79952 10.7144 6.94802 10.7369 7.09202L10.9484 8.31602C11.0114 8.68502 10.6244 8.96402 10.2959 8.78852L9.19789 8.21252C9.06739 8.14502 8.90989 8.14502 8.77939 8.21252L7.68139 8.78852C7.35289 8.96402 6.96589 8.68052 7.02889 8.31602H7.03789ZM8.99989 7.25852C9.21589 7.25852 9.43189 7.30802 9.62989 7.41602L9.92239 7.56902L9.86839 7.24502C9.79189 6.80852 9.94039 6.35852 10.2554 6.05252L10.4939 5.82302L10.1654 5.77352C9.72439 5.71052 9.34639 5.43602 9.14839 5.03552L8.99989 4.73852L8.85589 5.03552C8.65789 5.43602 8.27989 5.71052 7.83889 5.77352L7.51039 5.82302L7.74889 6.05252C8.06839 6.36302 8.21239 6.80852 8.13589 7.24952L8.08189 7.57352L8.37439 7.42052C8.57239 7.31702 8.78839 7.26752 9.00439 7.26752L8.99989 7.25852Z" fill="#E50300"/>
<path d="M4.55389 10.98L4.21639 10.3635C4.17589 10.287 4.11289 10.2285 4.03639 10.1835L3.41989 9.84602C3.10939 9.67502 3.10939 9.22502 3.41989 9.05852L4.03639 8.72102C4.11289 8.68052 4.17589 8.61752 4.21639 8.54102L4.55389 7.92452C4.72489 7.61402 5.17489 7.61402 5.34139 7.92452L5.67889 8.54102C5.71939 8.61752 5.78239 8.68052 5.85889 8.72102L6.47539 9.05852C6.78589 9.22952 6.78589 9.67952 6.47539 9.84602L5.85889 10.1835C5.78239 10.224 5.71939 10.287 5.67889 10.3635L5.34139 10.98C5.17039 11.2905 4.72039 11.2905 4.55389 10.98ZM4.56739 9.45002C4.72039 9.54902 4.85089 9.67952 4.94989 9.83252C5.04889 9.67952 5.17939 9.54902 5.33239 9.45002C5.17939 9.35102 5.04889 9.22052 4.94989 9.06752C4.85089 9.22052 4.72039 9.35102 4.56739 9.45002Z" fill="#E50300"/>
<path d="M13.1039 10.98L12.7664 10.3635C12.7259 10.287 12.6629 10.2285 12.5864 10.1835L11.9699 9.84602C11.6594 9.67502 11.6594 9.22502 11.9699 9.05852L12.5864 8.72102C12.6629 8.68052 12.7259 8.61752 12.7664 8.54102L13.1039 7.92452C13.2749 7.61402 13.7249 7.61402 13.8914 7.92452L14.2289 8.54102C14.2694 8.61752 14.3324 8.68052 14.4089 8.72102L15.0254 9.05852C15.3359 9.22952 15.3359 9.67952 15.0254 9.84602L14.4089 10.1835C14.3324 10.224 14.2694 10.287 14.2289 10.3635L13.8914 10.98C13.7204 11.2905 13.2704 11.2905 13.1039 10.98ZM13.1174 9.45002C13.2704 9.54902 13.4009 9.67952 13.4999 9.83252C13.5989 9.67952 13.7294 9.54902 13.8824 9.45002C13.7294 9.35102 13.5989 9.22052 13.4999 9.06752C13.4009 9.22052 13.2704 9.35102 13.1174 9.45002Z" fill="#E50300"/>
<path d="M4.94995 4.49998C5.19848 4.49998 5.39995 4.2985 5.39995 4.04998C5.39995 3.80145 5.19848 3.59998 4.94995 3.59998C4.70142 3.59998 4.49995 3.80145 4.49995 4.04998C4.49995 4.2985 4.70142 4.49998 4.94995 4.49998Z" fill="#FFCC17"/>
<path d="M13.5 4.49998C13.7485 4.49998 13.95 4.2985 13.95 4.04998C13.95 3.80145 13.7485 3.59998 13.5 3.59998C13.2514 3.59998 13.05 3.80145 13.05 4.04998C13.05 4.2985 13.2514 4.49998 13.5 4.49998Z" fill="#FFCC17"/>
<path d="M3.14995 6.74998C3.39848 6.74998 3.59995 6.5485 3.59995 6.29998C3.59995 6.05145 3.39848 5.84998 3.14995 5.84998C2.90142 5.84998 2.69995 6.05145 2.69995 6.29998C2.69995 6.5485 2.90142 6.74998 3.14995 6.74998Z" fill="#FFCC17"/>
<path d="M15.3 6.74998C15.5485 6.74998 15.75 6.5485 15.75 6.29998C15.75 6.05145 15.5485 5.84998 15.3 5.84998C15.0514 5.84998 14.85 6.05145 14.85 6.29998C14.85 6.5485 15.0514 6.74998 15.3 6.74998Z" fill="#FFCC17"/>
<path d="M8.54995 14.85C8.54995 15.0975 8.75245 15.3 8.99995 15.3C9.24745 15.3 9.44995 15.0975 9.44995 14.85V10.8C9.44995 10.5525 9.24745 10.35 8.99995 10.35C8.75245 10.35 8.54995 10.5525 8.54995 10.8V14.85Z" fill="#FFCC17"/>
<path d="M5.58895 13.0095C5.48545 12.7845 5.57995 12.5145 5.80495 12.411C6.02995 12.3075 6.29995 12.402 6.40345 12.627L7.35295 14.6655C7.45645 14.8905 7.36195 15.1605 7.13695 15.264C6.91195 15.3675 6.64195 15.273 6.53845 15.048L5.58895 13.0095Z" fill="#FFCC17"/>
<path d="M12.7575 13.0095C12.861 12.7845 12.7665 12.5145 12.5415 12.411C12.3165 12.3075 12.0465 12.402 11.943 12.627L10.9935 14.6655C10.89 14.8905 10.9845 15.1605 11.2095 15.264C11.4345 15.3675 11.7045 15.273 11.808 15.048L12.7575 13.0095Z" fill="#FFCC17"/>
<path d="M3.46945 14.2695C3.29395 14.094 3.29395 13.8105 3.46945 13.635C3.64495 13.4595 3.92845 13.4595 4.10395 13.635L5.05795 14.589C5.23345 14.7645 5.23345 15.048 5.05795 15.2235C4.88245 15.399 4.59895 15.399 4.42345 15.2235L3.46945 14.2695Z" fill="#FFCC17"/>
<path d="M14.958 14.2695C15.1335 14.094 15.1335 13.8105 14.958 13.635C14.7825 13.4595 14.499 13.4595 14.3235 13.635L13.3695 14.589C13.194 14.7645 13.194 15.048 13.3695 15.2235C13.545 15.399 13.8285 15.399 14.004 15.2235L14.958 14.2695Z" fill="#FFCC17"/>
</svg>
