<svg width="15" height="15" viewBox="0 0 15 15" fill="none" xmlns="http://www.w3.org/2000/svg">
<path d="M0 7.34046V1.39267C0 0.638319 0.609285 2.03544e-05 1.39265 2.03544e-05H7.31142C7.6886 2.03544e-05 8.03676 0.174102 8.29788 0.435224L14.4197 6.55709C14.971 7.10835 14.971 8.00777 14.4197 8.53001L8.50098 14.4488C7.97873 15 7.07931 15 6.52806 14.4488L0.40619 8.32692C0.145068 8.0658 0 7.71763 0 7.34046ZM3.24952 1.85689C2.46615 1.85689 1.85687 2.49519 1.85687 3.24954C1.85687 4.03291 2.46615 4.64219 3.24952 4.64219C4.00387 4.64219 4.64217 4.03291 4.64217 3.24954C4.64217 2.49519 4.00387 1.85689 3.24952 1.85689Z" fill="white"/>
</svg>
