<svg width="23" height="22" viewBox="0 0 23 22" fill="none" xmlns="http://www.w3.org/2000/svg">
<path d="M11.5 10.3947C10.8645 10.3947 10.2552 10.1566 9.80585 9.7328C9.35654 9.30902 9.10413 8.73426 9.10413 8.13495C9.10413 7.53564 9.35654 6.96087 9.80585 6.53709C10.2552 6.11332 10.8645 5.87524 11.5 5.87524C12.1354 5.87524 12.7448 6.11332 13.1941 6.53709C13.6434 6.96087 13.8958 7.53564 13.8958 8.13495C13.8958 8.4317 13.8338 8.72554 13.7134 8.9997C13.593 9.27386 13.4165 9.52297 13.1941 9.7328C12.9716 9.94263 12.7075 10.1091 12.4168 10.2226C12.1261 10.3362 11.8146 10.3947 11.5 10.3947ZM11.5 1.80777C9.7208 1.80777 8.01451 2.47438 6.75645 3.66096C5.49839 4.84753 4.79163 6.45688 4.79163 8.13495C4.79163 12.8803 11.5 19.8854 11.5 19.8854C11.5 19.8854 18.2083 12.8803 18.2083 8.13495C18.2083 6.45688 17.5015 4.84753 16.2435 3.66096C14.9854 2.47438 13.2791 1.80777 11.5 1.80777Z" fill="white"/>
</svg>
