<svg width="19" height="13" viewBox="0 0 19 13" fill="none" xmlns="http://www.w3.org/2000/svg">
<path fill-rule="evenodd" clip-rule="evenodd" d="M11.6893 0.0917876H17.8083C17.9075 0.0921868 18.0025 0.131769 18.0726 0.201911C18.1428 0.272054 18.1824 0.367073 18.1828 0.466268V4.62649H18.2192C18.3283 4.62689 18.4328 4.67051 18.5098 4.74781C18.5868 4.8251 18.63 4.92976 18.63 5.03887V5.49371C18.6296 5.60456 18.5854 5.71077 18.507 5.78915C18.4286 5.86754 18.3224 5.91176 18.2116 5.91216H15.3203C17.4687 6.10319 18.6967 8.10143 18.5633 10.7H16.6515C16.618 11.2795 16.3642 11.8242 15.9421 12.2226C15.52 12.621 14.9615 12.843 14.3811 12.843C13.8007 12.843 13.2422 12.621 12.8201 12.2226C12.398 11.8242 12.1442 11.2795 12.1107 10.7H6.34983C6.35012 10.6596 6.35 10.6192 6.34949 10.5788V10.7H6.34983C6.34807 10.9535 6.33074 11.2067 6.29794 11.4581L5.0987 10.8926C5.06484 11.2635 4.9421 11.6208 4.74087 11.9342C4.53965 12.2477 4.26586 12.508 3.94269 12.6932C3.61953 12.8784 3.2565 12.9829 2.88434 12.9981C2.51219 13.0132 2.14186 12.9384 1.80473 12.7801C1.46759 12.6218 1.17358 12.3845 0.947566 12.0885C0.721556 11.7924 0.570212 11.4463 0.506347 11.0793C0.442481 10.7124 0.467976 10.3355 0.580672 9.98045C0.693368 9.62545 0.889947 9.30282 1.15376 9.0399L0 8.48955C0.958525 7.39949 2.11606 6.93963 3.51319 7.24977L3.51284 7.2524C3.8256 7.32902 3.99146 7.3698 4.05609 7.3857C4.07847 7.3912 4.08871 7.39372 4.08872 7.39371C4.08872 7.3937 4.08139 7.39188 4.06787 7.38852C3.99837 7.37126 3.76532 7.3134 3.52497 7.2524L3.51319 7.24977C3.75707 5.41839 4.29717 3.63886 5.11234 1.98087L4.39673 1.97025C4.35787 1.97025 4.3185 1.97275 4.27973 1.9752C4.16728 1.98232 4.05989 1.98911 3.98435 1.93387C3.89412 1.92732 3.80694 1.89838 3.73071 1.84968C3.65447 1.80097 3.59157 1.73403 3.54771 1.6549C3.44441 1.48132 3.39188 1.28224 3.3961 1.08029C3.39192 0.877873 3.44444 0.678316 3.54771 0.504171C3.6166 0.38702 3.72365 0.297098 3.85093 0.249464C3.84865 0.234389 3.84865 0.219055 3.85093 0.20398C3.98776 -0.019129 4.23282 -0.00672609 4.47856 0.00571127C4.53507 0.00857146 4.59162 0.0114335 4.64689 0.0114335L4.93496 0.0296269C5.14844 0.0588979 5.35432 0.128896 5.5414 0.235819L5.8704 0.420785H6.13724L7.03478 0.593622C7.05808 0.59821 7.0798 0.602279 7.1 0.606063L7.10002 0.606068C7.33345 0.649804 7.3644 0.655603 7.30161 0.986296C7.29233 1.03249 7.28017 1.07806 7.26523 1.12275C7.19632 1.32827 7.14231 1.31317 6.98795 1.27002C6.94531 1.2581 6.89502 1.24405 6.83465 1.23191L5.99624 1.06059C6.02808 1.39868 5.92043 1.81864 5.77034 2.29622C6.25094 2.70405 6.46927 3.28473 6.13875 4.05188L5.33824 6.5186C6.68152 7.47072 7.48809 8.33794 7.53509 9.74641H9.23769C10.3323 8.9171 10.1474 7.4404 8.94963 6.49738V5.91216V5.02674C8.94963 4.74475 9.10124 4.61739 9.38172 4.62649H11.3148V0.466268C11.3152 0.367073 11.3548 0.272054 11.4249 0.201911C11.495 0.131769 11.5901 0.0921868 11.6893 0.0917876ZM3.69326 10.2376L2.54859 9.70244C2.34262 9.75056 2.15673 9.8616 2.01671 10.0201C1.87669 10.1787 1.78949 10.3769 1.76721 10.5872C1.74492 10.7976 1.78866 11.0096 1.89235 11.194C1.99603 11.3784 2.15453 11.5259 2.34585 11.6161C2.53717 11.7063 2.75182 11.7347 2.96002 11.6974C3.16823 11.6601 3.35966 11.5589 3.50777 11.4079C3.65587 11.2569 3.7533 11.0635 3.78654 10.8547C3.81978 10.6458 3.78718 10.4317 3.69326 10.2422V10.2376ZM3.86003 0.495074C3.87367 0.878651 3.89793 1.37139 3.91613 1.70797C3.88037 1.67606 3.84925 1.63932 3.82364 1.59881C3.73085 1.43986 3.68413 1.25822 3.68871 1.07423C3.68409 0.890712 3.73082 0.709553 3.82364 0.551171C3.83577 0.532977 3.8479 0.514784 3.86003 0.499623V0.495074ZM15.381 10.7031C15.3709 10.9615 15.2612 11.206 15.0748 11.3853C14.8884 11.5646 14.6398 11.6648 14.3811 11.6648C14.1225 11.6648 13.8739 11.5646 13.6875 11.3853C13.501 11.206 13.3913 10.9615 13.3812 10.7031H15.381ZM12.1704 2.86253V3.23543C12.1704 3.24548 12.1783 3.26222 12.1783 3.26222C12.1783 3.26222 12.1903 3.27332 12.1975 3.27332L17.6013 3.26916C17.6085 3.26916 17.6154 3.26516 17.6204 3.25806C17.6255 3.25095 17.6284 3.24132 17.6284 3.23127V2.85837C17.6286 2.85323 17.628 2.84808 17.6267 2.84325C17.6255 2.83842 17.6235 2.83401 17.621 2.83028C17.6184 2.82654 17.6154 2.82357 17.612 2.82155C17.6086 2.81952 17.605 2.81848 17.6013 2.81848L12.1975 2.82265C12.1938 2.82264 12.1902 2.82368 12.1868 2.82571C12.1834 2.82774 12.1804 2.83071 12.1778 2.83444C12.1753 2.83817 12.1733 2.84259 12.1721 2.84742C12.1708 2.85225 12.1702 2.85739 12.1704 2.86253ZM13.6867 1.8706V1.4977C13.6865 1.49256 13.6869 1.48742 13.6878 1.48259C13.6888 1.47776 13.6902 1.47335 13.692 1.46961C13.6938 1.46588 13.696 1.46291 13.6985 1.46088C13.7009 1.45885 13.7035 1.45781 13.7062 1.45782L17.609 1.45366C17.6116 1.45365 17.6143 1.45469 17.6167 1.45672C17.6191 1.45875 17.6213 1.46172 17.6232 1.46545C17.625 1.46918 17.6264 1.4736 17.6273 1.47843C17.6282 1.48326 17.6286 1.4884 17.6285 1.49354V1.86644C17.6285 1.87649 17.6264 1.88613 17.6228 1.89323C17.6191 1.90034 17.6142 1.90433 17.609 1.90433L13.7062 1.90849C13.701 1.90849 13.6924 1.8974 13.6924 1.8974C13.6924 1.8974 13.6867 1.88065 13.6867 1.8706Z" fill="#BF7300"/>
</svg>
