<svg width="19" height="13" viewBox="0 0 19 13" fill="none" xmlns="http://www.w3.org/2000/svg">
<path fill-rule="evenodd" clip-rule="evenodd" d="M11.6894 0.0917885H17.8085C17.9077 0.0921876 18.0027 0.13177 18.0728 0.201913C18.143 0.272056 18.1825 0.367076 18.1829 0.466272V4.62653H18.2193C18.3284 4.62693 18.4329 4.67056 18.51 4.74785C18.587 4.82515 18.6302 4.92981 18.6302 5.03892V5.49376C18.6298 5.60462 18.5856 5.71082 18.5072 5.78921C18.4288 5.8676 18.3226 5.91181 18.2118 5.91221H15.3205C17.4688 6.10324 18.6969 8.1015 18.5635 10.7001H16.6517C16.6182 11.2796 16.3644 11.8243 15.9423 12.2228C15.5201 12.6212 14.9617 12.8431 14.3812 12.8431C13.8008 12.8431 13.2423 12.6212 12.8202 12.2228C12.3981 11.8243 12.1443 11.2796 12.1108 10.7001H6.34989C6.35018 10.6597 6.35006 10.6193 6.34955 10.5789V10.7001H6.34989C6.34813 10.9536 6.3308 11.2068 6.298 11.4582L5.09874 10.8927C5.06488 11.2636 4.94214 11.6209 4.74091 11.9344C4.53969 12.2478 4.2659 12.5081 3.94273 12.6933C3.61956 12.8785 3.25653 12.9831 2.88437 12.9982C2.51221 13.0133 2.14188 12.9386 1.80475 12.7802C1.46761 12.6219 1.17359 12.3847 0.947575 12.0886C0.721563 11.7925 0.570217 11.4464 0.506351 11.0794C0.442485 10.7125 0.46798 10.3356 0.580677 9.98055C0.693374 9.62554 0.889955 9.30291 1.15377 9.03999L0 8.48963C0.958534 7.39956 2.11608 6.93969 3.51322 7.24984L3.51287 7.25247C3.8255 7.32906 3.99136 7.36984 4.05605 7.38574C4.07848 7.39126 4.08875 7.39379 4.08876 7.39377C4.08876 7.39377 4.08143 7.39195 4.06791 7.38859C3.99841 7.37133 3.76536 7.31347 3.525 7.25247L3.51322 7.24984C3.75711 5.41844 4.29721 3.6389 5.11239 1.98089L4.39678 1.97027C4.35791 1.97027 4.31854 1.97276 4.27977 1.97522C4.16732 1.98233 4.05993 1.98913 3.98439 1.93389C3.89416 1.92734 3.80698 1.8984 3.73074 1.84969C3.6545 1.80099 3.59161 1.73404 3.54774 1.65492C3.44444 1.48134 3.39191 1.28226 3.39613 1.0803C3.39195 0.877881 3.44447 0.678322 3.54774 0.504176C3.61663 0.387024 3.72369 0.297101 3.85097 0.249466C3.84868 0.234391 3.84868 0.219057 3.85097 0.203982C3.98779 -0.0191291 4.23286 -0.00672616 4.4786 0.00571132C4.53511 0.00857154 4.59166 0.0114336 4.64694 0.0114336L4.935 0.0296271C5.14849 0.0588984 5.35437 0.128897 5.54145 0.235821L5.87045 0.420789H6.13729L7.03484 0.593627C7.05814 0.598216 7.07986 0.602284 7.10006 0.606069L7.10009 0.606074C7.33352 0.64981 7.36447 0.655609 7.30168 0.986305C7.29239 1.0325 7.28024 1.07807 7.26529 1.12276C7.19639 1.32828 7.14238 1.31318 6.98801 1.27003C6.94538 1.25812 6.89509 1.24406 6.83471 1.23192L5.99629 1.0606C6.02813 1.39869 5.92049 1.81866 5.77039 2.29624C6.251 2.70408 6.46933 3.28476 6.13881 4.05192L5.33829 6.51866C6.68158 7.47079 7.48816 8.33802 7.53516 9.7465H9.23778C10.3324 8.91718 10.1475 7.44047 8.94971 6.49744V5.91221V5.02679C8.94971 4.74479 9.10133 4.61744 9.38181 4.62653H11.3149V0.466272C11.3153 0.367076 11.3549 0.272056 11.425 0.201913C11.4951 0.13177 11.5902 0.0921876 11.6894 0.0917885ZM3.69329 10.2377L2.54861 9.70253C2.34264 9.75065 2.15675 9.86169 2.01673 10.0202C1.87671 10.1788 1.78951 10.377 1.76722 10.5873C1.74494 10.7977 1.78867 11.0097 1.89236 11.1941C1.99605 11.3785 2.15455 11.526 2.34587 11.6162C2.53719 11.7064 2.75184 11.7348 2.96005 11.6975C3.16826 11.6602 3.3597 11.5591 3.5078 11.408C3.65591 11.257 3.75334 11.0637 3.78658 10.8548C3.81981 10.6459 3.78721 10.4318 3.69329 10.2423V10.2377ZM3.86007 0.495079C3.87371 0.87866 3.89797 1.3714 3.91616 1.70798C3.88041 1.67607 3.84928 1.63933 3.82368 1.59882C3.73089 1.43987 3.68416 1.25824 3.68874 1.07424C3.68413 0.890721 3.73086 0.709559 3.82368 0.551176L3.82368 0.551169C3.83581 0.532978 3.84794 0.514787 3.86007 0.499627V0.495079ZM15.3811 10.7032C15.3711 10.9616 15.2613 11.2061 15.0749 11.3854C14.8885 11.5647 14.6399 11.6649 14.3812 11.6649C14.1226 11.6649 13.874 11.5647 13.6876 11.3854C13.5012 11.2061 13.3914 10.9616 13.3814 10.7032H15.3811ZM12.1705 2.86306V3.23597C12.1705 3.24601 12.1785 3.26276 12.1785 3.26276C12.1785 3.26276 12.1904 3.27385 12.1976 3.27385L17.6015 3.26969C17.6087 3.26969 17.6155 3.2657 17.6206 3.25859C17.6257 3.25149 17.6285 3.24185 17.6285 3.2318V2.8589C17.6287 2.85376 17.6282 2.84862 17.6269 2.84379C17.6256 2.83896 17.6237 2.83454 17.6211 2.83081C17.6186 2.82708 17.6155 2.82411 17.6122 2.82208C17.6088 2.82005 17.6052 2.81901 17.6015 2.81902L12.1976 2.82318C12.1939 2.82317 12.1903 2.82421 12.1869 2.82624C12.1835 2.82827 12.1805 2.83124 12.1779 2.83497C12.1754 2.8387 12.1734 2.84312 12.1722 2.84795C12.1709 2.85278 12.1703 2.85792 12.1705 2.86306ZM13.6868 1.87113V1.49822C13.6866 1.49308 13.6871 1.48794 13.688 1.48311C13.6889 1.47828 13.6903 1.47386 13.6921 1.47013C13.694 1.4664 13.6962 1.46343 13.6986 1.4614C13.701 1.45937 13.7037 1.45833 13.7063 1.45834L17.6091 1.45418C17.6118 1.45417 17.6144 1.45521 17.6169 1.45724C17.6193 1.45927 17.6215 1.46224 17.6233 1.46597C17.6252 1.4697 17.6266 1.47412 17.6275 1.47895C17.6284 1.48378 17.6288 1.48892 17.6287 1.49406V1.86696C17.6287 1.87701 17.6266 1.88665 17.623 1.89376C17.6193 1.90086 17.6143 1.90485 17.6091 1.90485L13.7063 1.90902C13.7011 1.90902 13.6925 1.89792 13.6925 1.89792C13.6925 1.89792 13.6868 1.88118 13.6868 1.87113Z" fill="#BF7300"/>
</svg>
