<svg width="19" height="13" viewBox="0 0 19 13" fill="none" xmlns="http://www.w3.org/2000/svg">
<path fill-rule="evenodd" clip-rule="evenodd" d="M11.6893 0.0917878H17.8083C17.9075 0.092187 18.0025 0.131769 18.0727 0.201912C18.1428 0.272054 18.1824 0.367073 18.1828 0.466269V4.6265H18.2192C18.3283 4.6269 18.4328 4.67052 18.5098 4.74782C18.5868 4.82511 18.6301 4.92977 18.6301 5.03888V5.49372C18.6297 5.60457 18.5855 5.71078 18.5071 5.78916C18.4287 5.86755 18.3225 5.91177 18.2116 5.91217H15.3204C17.4687 6.1032 18.6968 8.10144 18.5634 10.7001H16.6515C16.618 11.2795 16.3642 11.8243 15.9421 12.2227C15.52 12.6211 14.9616 12.843 14.3811 12.843C13.8007 12.843 13.2423 12.6211 12.8201 12.2227C12.398 11.8243 12.1443 11.2795 12.1108 10.7001H6.34985C6.35013 10.6596 6.35002 10.6192 6.34951 10.5788V10.7001H6.34985C6.34808 10.9535 6.33076 11.2067 6.29796 11.4581L5.09871 10.8926C5.06485 11.2635 4.94211 11.6208 4.74088 11.9343C4.53965 12.2477 4.26587 12.508 3.9427 12.6932C3.61953 12.8784 3.2565 12.983 2.88435 12.9981C2.51219 13.0132 2.14187 12.9385 1.80473 12.7801C1.4676 12.6218 1.17358 12.3846 0.947568 12.0885C0.721558 11.7925 0.570213 11.4463 0.506348 11.0794C0.442483 10.7124 0.467977 10.3355 0.580674 9.98047C0.69337 9.62547 0.889949 9.30284 1.15377 9.03992L0 8.48957C0.958527 7.39951 2.11606 6.93964 3.5132 7.24978L3.51285 7.25242C3.82551 7.32901 3.99136 7.36979 4.05604 7.38569C4.07846 7.39121 4.08872 7.39373 4.08873 7.39372C4.08873 7.39371 4.0814 7.39189 4.0679 7.38854C3.99841 7.37129 3.76534 7.31342 3.52498 7.25242L3.5132 7.24978C3.75708 5.4184 4.29718 3.63887 5.11235 1.98087L4.39674 1.97026C4.35787 1.97026 4.31851 1.97275 4.27974 1.9752C4.16729 1.98232 4.0599 1.98912 3.98436 1.93387C3.89413 1.92732 3.80695 1.89839 3.73071 1.84968C3.65448 1.80097 3.59158 1.73403 3.54772 1.65491C3.44442 1.48133 3.39189 1.28225 3.39611 1.0803C3.39193 0.877874 3.44444 0.678317 3.54772 0.504172C3.61661 0.387021 3.72366 0.297098 3.85094 0.249464C3.84865 0.234389 3.84865 0.219055 3.85094 0.203981C3.98777 -0.019129 4.23283 -0.0067261 4.47857 0.00571128C4.53508 0.00857147 4.59163 0.0114335 4.6469 0.0114335L4.93497 0.0296269C5.14845 0.058898 5.35433 0.128896 5.54141 0.235819L5.87041 0.420785H6.13725L7.03479 0.593623C7.0581 0.598212 7.07981 0.602281 7.10002 0.606066L7.10003 0.606069C7.33346 0.649805 7.36442 0.655604 7.30163 0.986298C7.29234 1.03249 7.28019 1.07806 7.26524 1.12275C7.19634 1.32827 7.14233 1.31317 6.98796 1.27002C6.94533 1.25811 6.89504 1.24405 6.83466 1.23191L5.99625 1.06059C6.02809 1.39868 5.92044 1.81865 5.77035 2.29622C6.25096 2.70406 6.46928 3.28473 6.13876 4.05189L5.33825 6.51861C6.68153 7.47074 7.48811 8.33796 7.53511 9.74643H9.23771C10.3323 8.91711 10.1474 7.44041 8.94965 6.49739V5.91217V5.02675C8.94965 4.74476 9.10126 4.6174 9.38174 4.6265H11.3148V0.466269C11.3152 0.367073 11.3548 0.272054 11.4249 0.201912C11.4951 0.131769 11.5901 0.092187 11.6893 0.0917878ZM3.69327 10.2377L2.5486 9.70246C2.34262 9.75058 2.15673 9.86162 2.01671 10.0202C1.8767 10.1787 1.7895 10.3769 1.76721 10.5872C1.74493 10.7976 1.78866 11.0096 1.89235 11.194C1.99604 11.3784 2.15453 11.5259 2.34585 11.6161C2.53717 11.7063 2.75182 11.7347 2.96003 11.6974C3.16824 11.6601 3.35967 11.559 3.50778 11.408C3.65588 11.2569 3.75331 11.0636 3.78655 10.8547C3.81979 10.6458 3.78718 10.4317 3.69327 10.2422V10.2377ZM3.86004 0.495075C3.87368 0.878653 3.89794 1.37139 3.91613 1.70797C3.88038 1.67606 3.84925 1.63932 3.82365 1.59881C3.73086 1.43986 3.68414 1.25823 3.68872 1.07423C3.6841 0.890714 3.73083 0.709554 3.82365 0.551172C3.83578 0.532978 3.84791 0.514785 3.86004 0.499624V0.495075ZM15.381 10.7031C15.371 10.9615 15.2612 11.2061 15.0748 11.3854C14.8884 11.5646 14.6398 11.6648 14.3811 11.6648C14.1225 11.6648 13.8739 11.5646 13.6875 11.3854C13.5011 11.2061 13.3913 10.9615 13.3813 10.7031H15.381ZM12.1714 2.86305V3.23596C12.1714 3.246 12.1794 3.26275 12.1794 3.26275C12.1794 3.26275 12.1913 3.27384 12.1985 3.27384L17.6023 3.26968C17.6095 3.26968 17.6164 3.26569 17.6215 3.25858C17.6265 3.25148 17.6294 3.24184 17.6294 3.23179V2.85889C17.6296 2.85375 17.629 2.84861 17.6278 2.84378C17.6265 2.83895 17.6245 2.83453 17.622 2.8308C17.6195 2.82707 17.6164 2.8241 17.613 2.82207C17.6097 2.82004 17.606 2.819 17.6023 2.81901L12.1985 2.82317C12.1948 2.82316 12.1912 2.8242 12.1878 2.82623C12.1844 2.82826 12.1814 2.83123 12.1788 2.83496C12.1763 2.8387 12.1743 2.84311 12.1731 2.84794C12.1718 2.85277 12.1712 2.85791 12.1714 2.86305ZM13.6863 1.87106V1.49816C13.6862 1.49302 13.6866 1.48788 13.6875 1.48305C13.6884 1.47822 13.6898 1.4738 13.6916 1.47007C13.6935 1.46634 13.6957 1.46337 13.6981 1.46134C13.7005 1.45931 13.7032 1.45827 13.7058 1.45828L17.6086 1.45412C17.6113 1.45411 17.6139 1.45515 17.6163 1.45718C17.6188 1.45921 17.621 1.46218 17.6228 1.46591C17.6246 1.46964 17.626 1.47406 17.627 1.47889C17.6279 1.48372 17.6283 1.48886 17.6281 1.494V1.8669C17.6281 1.87695 17.6261 1.88659 17.6224 1.89369C17.6188 1.9008 17.6138 1.90479 17.6086 1.90479L13.7058 1.90895C13.7006 1.90895 13.692 1.89785 13.692 1.89785C13.692 1.89785 13.6863 1.88111 13.6863 1.87106Z" fill="#BF7300"/>
</svg>
