<svg width="13" height="12" viewBox="0 0 13 12" fill="none" xmlns="http://www.w3.org/2000/svg">
<path d="M12.1599 4.22553L8.39286 3.67805L6.70889 0.264101C6.66289 0.170629 6.58722 0.0949611 6.49375 0.048967C6.25933 -0.0667602 5.97446 0.0296791 5.85725 0.264101L4.17327 3.67805L0.406209 4.22553C0.302351 4.24037 0.207395 4.28933 0.134695 4.36351C0.0468043 4.45385 -0.00162746 4.57538 4.17596e-05 4.70141C0.00171098 4.82744 0.0533446 4.94764 0.143597 5.03562L2.86912 7.69289L2.2252 11.4451C2.2101 11.5324 2.21976 11.6222 2.25308 11.7043C2.28641 11.7863 2.34206 11.8574 2.41373 11.9095C2.4854 11.9615 2.57023 11.9925 2.65858 11.9988C2.74694 12.0051 2.8353 11.9865 2.91363 11.9451L6.28307 10.1736L9.65251 11.9451C9.7445 11.9941 9.85132 12.0104 9.9537 11.9926C10.2119 11.9481 10.3854 11.7033 10.3409 11.4451L9.69702 7.69289L12.4225 5.03562C12.4967 4.96292 12.5457 4.86796 12.5605 4.76411C12.6006 4.50446 12.4196 4.26411 12.1599 4.22553Z" fill="#BF7300"/>
</svg>
