<svg width="26" height="24" viewBox="0 0 26 24" fill="none" xmlns="http://www.w3.org/2000/svg">
<path d="M18.8496 0.694336C22.4659 0.694336 25.3056 3.54483 25.3057 7.19336C25.3057 9.43837 24.3079 11.5292 22.4141 13.8604C20.512 16.2016 17.7775 18.7001 14.416 21.7734L13.001 23.0586L11.584 21.7607H11.583C8.22159 18.6941 5.48788 16.1978 3.58594 13.8584C1.69221 11.529 0.694336 9.43836 0.694336 7.19336C0.694388 3.54483 3.53413 0.694336 7.15039 0.694336C9.20029 0.694458 11.1798 1.65867 12.4697 3.18262L13 3.80859L13.5303 3.18262C14.8202 1.65867 16.7997 0.694458 18.8496 0.694336Z" stroke="black" stroke-width="1.38965"/>
</svg>
