<svg width="13" height="16" viewBox="0 0 13 16" fill="none" xmlns="http://www.w3.org/2000/svg">
<path d="M8.66721 0H4.3336V1.44453H8.66721V0ZM11.5779 4.61529L12.6036 3.58967C12.293 3.22131 11.9535 2.87462 11.5852 2.57127L10.5595 3.59689C9.40921 2.67118 7.97696 2.16658 6.5004 2.1668C2.91074 2.1668 0 5.07754 0 8.66721C0 12.2569 2.90351 15.1676 6.5004 15.1676C7.72415 15.1683 8.92319 14.8233 9.95943 14.1723C10.9957 13.5213 11.827 12.5909 12.3576 11.4882C12.8882 10.3855 13.0965 9.15529 12.9586 7.93934C12.8207 6.7234 12.3421 5.57114 11.5779 4.61529ZM6.5004 13.7231C3.70523 13.7231 1.44453 11.4624 1.44453 8.66721C1.44453 5.87203 3.70523 3.61134 6.5004 3.61134C9.29558 3.61134 11.5563 5.87203 11.5563 8.66721C11.5563 11.4624 9.29558 13.7231 6.5004 13.7231Z" fill="black"/>
</svg>
