<svg width="7" height="11" viewBox="0 0 7 11" fill="none" xmlns="http://www.w3.org/2000/svg">
<path d="M6.7375 1.48485C6.88247 1.48485 7 1.36019 7 1.20644V0.278409C7 0.124658 6.88247 0 6.7375 0H0.2625C0.117534 0 0 0.124658 0 0.278409V1.3166C0 1.47035 0.117534 1.59501 0.2625 1.59501H2.128C2.72536 1.59501 3.18371 1.82604 3.46172 2.22727H0.2625C0.117534 2.22727 0 2.35193 0 2.50568V3.43371C0 3.58746 0.117534 3.71212 0.2625 3.71212H3.73531C3.59931 4.54934 3.01429 5.07243 2.1 5.07243H0.2625C0.117534 5.07243 0 5.19709 0 5.35084V6.58076C0 6.65845 0.030625 6.73263 0.0844594 6.78534L3.69497 10.3201C3.74346 10.3676 3.80703 10.3939 3.87301 10.3939H5.67906C5.91802 10.3939 6.03269 10.0829 5.8571 9.91095L2.55655 6.67964C4.22997 6.62535 5.42533 5.44083 5.58226 3.71212H6.7375C6.88247 3.71212 7 3.58746 7 3.43371V2.50568C7 2.35193 6.88247 2.22727 6.7375 2.22727H5.45366C5.3774 1.95951 5.27253 1.71115 5.14189 1.48485H6.7375Z" fill="white"/>
</svg>
