<svg width="19" height="17" viewBox="0 0 19 17" fill="none" xmlns="http://www.w3.org/2000/svg">
<path d="M13.4336 0.694336C15.9031 0.694519 17.834 2.62615 17.834 5.0957C17.8339 6.6183 17.1552 8.05419 15.8193 9.68848C14.4757 11.3323 12.5406 13.0904 10.1416 15.2705L9.26562 16.0615L8.38867 15.2637L8.3877 15.2627L6.67676 13.7041C5.05736 12.2153 3.71673 10.9195 2.70898 9.6875C1.3733 8.0545 0.694436 6.61829 0.694336 5.0957C0.694336 2.62604 2.62604 0.694336 5.0957 0.694336C6.49719 0.69444 7.85318 1.35077 8.73535 2.38672L9.26465 3.00781L9.79297 2.38672C10.6752 1.35069 12.032 0.694336 13.4336 0.694336Z" stroke="white" stroke-width="1.38965"/>
</svg>
